<?xml version="1.0" encoding="UTF-8" ?>
<!DOCTYPE svg PUBLIC "-//W3C//DTD SVG 1.1//EN" "http://www.w3.org/Graphics/SVG/1.1/DTD/svg11.dtd">
<svg width="412pt" height="312pt" viewBox="0 0 412 312" version="1.1" xmlns="http://www.w3.org/2000/svg">
<g id="#000000ff">
<path fill="#ffffff" opacity="1.00" d=" M 39.30 0.00 L 374.46 0.00 C 384.34 1.39 394.30 5.32 400.86 13.13 C 405.06 18.25 408.77 24.28 409.58 30.98 C 410.16 37.41 404.37 41.67 399.44 44.53 C 337.53 83.10 276.01 122.29 214.58 161.61 C 211.73 163.38 208.47 164.91 205.03 164.60 C 200.47 164.16 196.76 161.22 193.00 158.87 C 131.66 119.52 70.08 80.54 8.41 41.69 C 4.70 39.59 1.46 35.62 2.52 31.09 C 4.30 22.53 8.70 14.30 15.52 8.71 C 22.18 3.17 30.85 0.90 39.30 0.00 Z" />
<path fill="#ffffff" opacity="1.00" d=" M 2.69 72.17 C 46.60 100.08 90.47 128.05 134.38 155.96 C 133.64 156.63 132.86 157.25 132.05 157.82 C 88.87 185.13 45.91 212.80 2.68 240.02 C 2.70 184.07 2.67 128.12 2.69 72.17 Z" />
<path fill="#ffffff" opacity="1.00" d=" M 282.17 153.20 C 324.56 126.26 366.90 99.23 409.30 72.29 C 409.32 128.18 409.32 184.07 409.31 239.95 C 365.46 212.18 321.80 184.10 277.88 156.44 C 278.96 154.96 280.65 154.17 282.17 153.20 Z" />
<path fill="#ffffff" opacity="1.00" d=" M 241.71 178.70 C 243.94 177.20 246.30 175.59 249.08 175.39 C 252.20 175.14 255.08 176.71 257.66 178.30 C 305.88 209.18 354.25 239.85 402.83 270.16 C 406.60 272.41 409.93 276.28 409.56 280.94 C 408.81 288.41 404.97 295.41 399.73 300.70 C 393.06 307.37 383.81 310.70 374.63 312.00 L 36.02 312.00 C 30.34 310.85 24.64 309.32 19.66 306.26 C 10.82 301.07 4.71 291.84 2.62 281.89 C 1.97 279.03 2.56 275.80 4.67 273.68 C 7.07 271.25 10.16 269.70 13.00 267.86 C 60.28 238.22 107.35 208.24 154.74 178.78 C 159.34 175.88 165.50 176.31 170.14 178.91 C 179.52 183.93 188.46 189.73 197.19 195.80 C 199.83 197.61 202.72 199.50 206.05 199.48 C 209.32 199.49 212.13 197.61 214.74 195.86 C 223.53 189.83 232.97 184.81 241.71 178.70 Z" />
</g>
</svg>
