<?xml version="1.0" encoding="UTF-8" ?>
<!DOCTYPE svg PUBLIC "-//W3C//DTD SVG 1.1//EN" "http://www.w3.org/Graphics/SVG/1.1/DTD/svg11.dtd">
<svg width="1172pt" height="1110pt" viewBox="0 0 1172 1110" version="1.1" xmlns="http://www.w3.org/2000/svg">
<g id="#000000bf">
<path fill="#000000" opacity="0.75" d=" M 76.18 17.25 C 81.09 16.64 86.05 16.67 90.99 16.66 C 421.99 16.67 752.98 16.66 1083.98 16.67 C 1097.37 16.42 1110.83 19.29 1122.85 25.23 C 1150.26 38.37 1168.95 67.60 1169.29 98.01 C 1169.39 126.65 1169.33 155.30 1169.31 183.94 C 1169.30 208.84 1157.33 233.38 1137.67 248.67 C 1121.59 261.69 1100.54 267.70 1079.99 266.67 C 753.00 266.66 426.01 266.66 99.02 266.67 C 90.61 266.56 82.15 267.09 73.81 265.76 C 54.52 262.99 36.40 253.12 23.53 238.49 C 10.28 223.64 2.75 203.87 2.68 183.98 C 2.65 155.97 2.66 127.97 2.67 99.96 C 2.60 80.50 9.64 61.10 22.25 46.27 C 35.66 30.18 55.37 19.62 76.18 17.25 Z" />
<path fill="#000000" opacity="0.75" d=" M 81.36 433.47 C 111.91 433.01 142.48 433.39 173.04 433.27 C 472.69 433.27 772.34 433.27 1071.98 433.27 C 1081.49 433.33 1091.09 432.86 1100.50 434.61 C 1119.65 437.83 1137.48 448.18 1149.88 463.11 C 1162.27 477.75 1169.23 496.81 1169.31 515.98 C 1169.36 543.99 1169.34 571.99 1169.32 599.99 C 1169.36 619.21 1162.53 638.38 1150.18 653.12 C 1133.84 673.14 1107.81 684.60 1082.01 683.27 C 749.34 683.27 416.67 683.26 84.00 683.27 C 64.70 682.95 45.67 675.47 31.18 662.74 C 13.46 647.48 2.82 624.41 2.69 601.03 C 2.63 574.01 2.69 547.00 2.66 519.98 C 2.59 513.26 2.96 506.50 4.35 499.91 C 8.65 478.26 22.07 458.61 40.65 446.70 C 52.72 438.75 66.95 434.27 81.36 433.47 Z" />
<path fill="#000000" opacity="0.75" d=" M 75.52 850.67 C 80.31 850.02 85.16 850.00 90.00 850.00 C 416.67 850.00 743.34 850.00 1070.01 850.00 C 1081.35 850.13 1092.86 849.32 1104.00 851.97 C 1121.69 855.74 1137.95 865.62 1149.60 879.44 C 1161.35 893.23 1168.37 910.96 1169.20 929.06 C 1169.51 955.38 1169.25 981.71 1169.33 1008.03 C 1169.36 1015.71 1169.47 1023.44 1168.08 1031.03 C 1164.64 1051.15 1153.45 1069.82 1137.29 1082.31 C 1122.81 1093.73 1104.43 1100.02 1086.01 1100.00 C 753.66 1100.00 421.32 1099.99 88.98 1100.01 C 75.90 1100.32 62.68 1097.82 50.84 1092.19 C 29.76 1082.53 13.19 1063.60 6.42 1041.42 C 3.85 1033.22 2.64 1024.62 2.67 1016.03 C 2.67 988.37 2.65 960.71 2.68 933.05 C 2.66 914.29 9.24 895.62 21.05 881.05 C 34.37 864.36 54.31 853.20 75.52 850.67 Z" />
</g>
</svg>
