<?xml version="1.0" encoding="UTF-8" ?>
<!DOCTYPE svg PUBLIC "-//W3C//DTD SVG 1.1//EN" "http://www.w3.org/Graphics/SVG/1.1/DTD/svg11.dtd">
<svg width="1172pt" height="1110pt" viewBox="0 0 1172 1110" version="1.1" xmlns="http://www.w3.org/2000/svg">
<g id="#000000bf">
<path fill="#ffffff" opacity="0.75" d=" M 76.22 17.25 C 82.45 16.49 88.74 16.70 95.00 16.66 C 419.34 16.67 743.68 16.66 1068.02 16.66 C 1081.46 16.79 1095.20 15.77 1108.26 19.70 C 1136.09 27.05 1158.97 50.06 1166.35 77.86 C 1170.40 91.55 1169.13 105.94 1169.34 120.02 C 1169.33 136.34 1169.33 152.66 1169.34 168.99 C 1169.27 179.86 1169.87 190.88 1167.32 201.55 C 1162.06 225.76 1145.27 247.07 1123.04 257.97 C 1111.61 263.66 1098.84 266.63 1086.08 266.67 C 756.06 266.66 426.03 266.67 96.00 266.66 C 88.95 266.62 81.87 266.95 74.87 265.91 C 55.43 263.37 37.07 253.62 24.00 239.01 C 12.29 226.09 4.88 209.36 3.13 192.01 C 2.55 186.69 2.67 181.34 2.66 176.00 C 2.67 153.99 2.66 131.99 2.67 109.99 C 2.69 102.37 2.41 94.69 3.66 87.15 C 6.55 67.93 16.50 49.89 31.19 37.18 C 43.69 26.13 59.67 19.19 76.22 17.25 Z" />
<path fill="#ffffff" opacity="0.75" d=" M 81.34 433.47 C 104.57 433.01 127.81 433.39 151.04 433.27 C 456.00 433.27 760.96 433.27 1065.93 433.27 C 1077.69 433.47 1089.58 432.53 1101.21 434.74 C 1120.09 438.08 1137.62 448.37 1149.87 463.11 C 1162.28 477.75 1169.24 496.84 1169.31 516.03 C 1169.36 544.02 1169.34 572.01 1169.32 600.00 C 1169.37 619.71 1162.16 639.36 1149.23 654.25 C 1133.49 672.77 1109.31 683.81 1084.98 683.28 C 751.34 683.26 417.70 683.27 84.05 683.27 C 66.18 682.97 48.51 676.58 34.50 665.49 C 14.31 649.89 2.22 624.56 2.67 599.05 C 2.68 571.37 2.64 543.68 2.68 516.00 C 2.62 489.17 16.64 462.86 38.88 447.88 C 51.33 439.23 66.23 434.30 81.34 433.47 Z" />
<path fill="#ffffff" opacity="0.75" d=" M 75.53 850.67 C 80.32 850.02 85.17 850.00 89.99 850.00 C 416.32 850.00 742.65 850.00 1068.98 850.00 C 1075.99 850.04 1083.02 849.89 1090.04 850.12 C 1108.77 850.96 1127.17 858.31 1141.15 870.83 C 1157.06 884.74 1167.27 904.94 1168.99 926.01 C 1169.60 934.00 1169.23 942.02 1169.34 950.03 C 1169.33 969.00 1169.33 987.98 1169.33 1006.96 C 1169.30 1013.67 1169.53 1020.41 1168.66 1027.10 C 1166.11 1048.19 1155.04 1068.09 1138.47 1081.37 C 1123.82 1093.35 1104.97 1100.02 1086.06 1100.00 C 752.38 1099.99 418.70 1100.01 85.02 1099.99 C 56.62 1099.91 28.98 1084.01 14.54 1059.57 C 8.24 1049.10 4.29 1037.23 3.10 1025.07 C 2.48 1019.07 2.70 1013.04 2.67 1007.03 C 2.66 983.36 2.67 959.70 2.66 936.04 C 1.82 911.53 12.31 886.89 30.87 870.80 C 43.24 859.73 59.07 852.70 75.53 850.67 Z" />
</g>
</svg>
